<?xml version="1.0" standalone="no"?>
<!DOCTYPE svg PUBLIC "-//W3C//DTD SVG 20010904//EN"
 "http://www.w3.org/TR/2001/REC-SVG-20010904/DTD/svg10.dtd">
<svg version="1.0" xmlns="http://www.w3.org/2000/svg"
     width="100" height="100" viewBox="0 0 768.000000 768.000000"
     preserveAspectRatio="xMidYMid meet">

    <g transform="translate(0.000000,768.000000) scale(0.100000,-0.100000)"
       fill="#000000" stroke="none">
        <path d="M3403 6531 c-83 -21 -107 -56 -133 -189 -10 -55 -28 -118 -39 -140
-42 -82 -155 -146 -256 -145 -74 0 -111 15 -198 82 -121 93 -165 99 -253 33
-115 -88 -140 -180 -75 -283 97 -153 112 -201 91 -291 -24 -101 -74 -174 -143
-209 -22 -12 -82 -30 -134 -40 -51 -10 -107 -26 -124 -35 -46 -23 -69 -82 -69
-179 0 -141 34 -175 195 -195 159 -20 226 -67 275 -196 38 -104 23 -178 -61
-302 -87 -127 -86 -174 5 -270 109 -115 163 -119 309 -19 124 85 222 94 339
30 92 -50 127 -114 148 -267 5 -43 18 -94 27 -113 24 -51 86 -77 183 -76 132
0 178 43 194 178 13 112 33 163 85 215 59 59 136 90 225 90 69 0 113 -18 226
-93 104 -70 169 -58 268 48 92 98 93 140 6 257 -67 91 -89 151 -81 226 10 96
76 200 151 239 17 9 73 27 125 40 52 13 106 30 119 39 40 26 62 89 62 179 0
139 -34 178 -179 201 -52 8 -111 24 -131 34 -59 30 -108 95 -132 173 -34 112
-19 172 78 313 78 115 74 156 -24 254 -107 107 -155 110 -297 20 -95 -60 -140
-74 -220 -67 -109 8 -215 77 -251 162 -7 17 -20 71 -28 121 -17 95 -34 128
-84 157 -35 21 -149 31 -199 18z m205 -756 c229 -46 420 -221 492 -450 33
-106 32 -262 -4 -371 -64 -198 -222 -357 -420 -420 -94 -30 -243 -37 -336 -15
-176 42 -349 179 -429 341 -126 256 -79 532 124 735 160 161 358 222 573 180z"/>
        <path d="M4530 6174 c0 -3 14 -23 30 -44 85 -107 80 -192 -17 -318 -49 -64
-73 -119 -73 -169 l0 -43 73 0 c138 0 256 -49 351 -144 260 -261 157 -698
-192 -815 -43 -15 -87 -21 -147 -21 -79 0 -85 -1 -85 -20 0 -29 35 -94 82
-154 72 -90 85 -153 49 -233 -22 -47 -92 -127 -135 -154 l-28 -17 23 -13 c13
-7 54 -13 90 -13 106 0 139 33 154 159 12 103 62 168 152 201 83 29 131 18
257 -60 33 -20 72 -36 86 -36 55 0 143 75 170 144 12 32 -5 81 -46 129 -69 82
-80 159 -35 254 36 76 79 107 179 129 94 21 127 48 141 115 12 57 6 123 -16
157 -18 30 -62 48 -134 56 -83 10 -133 46 -171 123 -45 92 -39 146 30 250 71
108 72 137 11 207 -74 84 -133 97 -212 46 -124 -79 -190 -89 -282 -46 -71 32
-111 82 -125 153 -20 101 -29 129 -47 145 -27 24 -133 50 -133 32z"/>
        <path d="M2248 3582 l-178 -2 0 -620 0 -620 450 0 450 0 0 120 0 120 -290 0
-290 0 0 155 0 155 270 0 270 0 0 120 0 120 -270 0 -270 0 0 105 0 105 290 0
290 0 0 120 c0 108 -2 120 -17 120 -281 4 -566 4 -705 2z"/>
        <path d="M3283 3582 l-43 -3 0 -620 0 -619 160 0 160 0 0 225 0 225 78 -1 77
0 165 -224 165 -224 198 -1 199 0 -50 63 c-156 196 -362 463 -362 468 0 3 15
12 33 21 56 27 144 115 173 174 31 63 44 201 25 269 -30 111 -134 201 -264
230 -55 12 -142 16 -372 18 -165 1 -319 1 -342 -1z m558 -242 c19 -5 48 -24
65 -41 26 -27 29 -37 29 -99 0 -54 -4 -75 -21 -96 -50 -67 -98 -83 -251 -84
l-103 0 0 163 c0 90 3 167 8 172 9 9 226 -2 273 -15z"/>
        <path d="M4628 3582 l-38 -3 0 -620 0 -619 160 0 160 0 0 199 0 198 158 6
c231 8 308 34 423 144 158 150 167 443 17 578 -50 46 -143 89 -223 104 -55 10
-568 20 -657 13z m526 -243 c21 -6 57 -28 79 -48 37 -35 41 -43 45 -99 11
-154 -65 -212 -278 -212 l-90 0 0 185 0 185 103 0 c56 0 119 -5 141 -11z"/>
        <path d="M2070 2125 l0 -75 45 0 c25 0 45 5 45 10 0 6 -16 10 -35 10 -31 0
-35 3 -35 25 0 22 4 25 35 25 19 0 35 5 35 10 0 6 -15 10 -34 10 -20 0 -36 6
-39 14 -8 20 2 26 40 26 18 0 33 5 33 10 0 6 -20 10 -45 10 l-45 0 0 -75z"/>
        <path d="M2197 2193 c-11 -10 -8 -143 3 -143 5 0 10 28 12 63 l3 62 33 -62
c18 -35 37 -63 42 -63 6 0 9 32 8 78 l-1 77 -6 -60 -6 -60 -33 58 c-33 56 -42
64 -55 50z"/>
        <path d="M2324 2188 c-3 -4 6 -8 20 -8 30 0 42 -31 33 -85 -3 -19 -2 -37 3
-40 5 -3 10 23 12 57 3 61 4 63 33 68 17 3 25 8 20 12 -15 9 -115 6 -121 -4z"/>
        <path d="M2470 2123 l0 -73 45 0 c25 0 45 5 45 10 0 6 -16 10 -35 10 -31 0
-35 3 -35 25 0 22 4 25 35 25 19 0 35 5 35 10 0 6 -16 10 -35 10 -28 0 -35 4
-35 20 0 16 7 20 35 20 19 0 35 5 35 10 0 7 -19 10 -45 9 l-45 -3 0 -73z"/>
        <path d="M2597 2194 c-11 -11 -9 -144 3 -144 6 0 10 14 10 30 0 20 5 30 15 30
8 0 24 -13 37 -30 12 -16 28 -30 36 -30 9 0 5 10 -12 31 -23 27 -24 32 -11 45
19 19 19 38 2 53 -18 14 -70 25 -80 15z m69 -29 c8 -20 -13 -45 -37 -45 -14 0
-19 7 -19 30 0 25 4 30 25 30 14 0 28 -7 31 -15z"/>
        <path d="M2736 2192 c-10 -10 -6 -142 4 -142 6 0 10 11 10 24 0 18 7 25 29 29
37 8 56 39 41 67 -6 11 -18 20 -28 21 -9 0 -25 2 -34 4 -9 2 -19 0 -22 -3z
m64 -27 c16 -19 -3 -45 -31 -45 -14 0 -19 7 -19 30 0 23 5 30 19 30 10 0 24
-7 31 -15z"/>
        <path d="M2856 2192 c-10 -10 -7 -142 4 -142 6 0 10 14 10 30 0 19 5 30 14 30
8 0 26 -13 39 -30 14 -16 31 -30 38 -30 7 0 0 13 -15 29 -26 28 -27 31 -12 46
20 20 20 39 2 54 -16 13 -71 22 -80 13z m64 -22 c20 -13 2 -44 -29 -48 -18 -3
-21 2 -21 27 0 33 19 41 50 21z"/>
        <path d="M2994 2181 c9 -29 10 -107 2 -119 -5 -8 1 -12 20 -12 22 0 25 3 16
12 -14 14 -16 118 -2 118 6 0 10 4 10 8 0 4 -11 8 -25 8 -18 0 -24 -4 -21 -15z"/>
        <path d="M3098 2193 c-22 -6 -33 -40 -18 -59 7 -8 27 -18 44 -22 17 -5 32 -15
34 -24 4 -22 -29 -31 -63 -18 -20 8 -26 7 -23 -2 6 -17 76 -22 94 -7 18 15 15
49 -6 60 -8 4 -28 10 -43 14 -20 4 -27 11 -25 23 3 13 14 17 46 16 45 -1 56
10 20 20 -25 6 -34 6 -60 -1z"/>
        <path d="M3217 2193 c-4 -3 -7 -37 -7 -75 l0 -68 51 0 c31 0 48 4 44 10 -3 6
-22 10 -41 10 -30 0 -34 3 -34 25 0 23 4 25 40 25 22 0 40 5 40 10 0 6 -18 10
-40 10 -33 0 -40 3 -40 20 0 17 7 20 41 20 24 0 38 4 34 10 -7 11 -78 14 -88
3z"/>
        <path d="M3410 2126 c0 -44 4 -76 10 -76 6 0 10 14 10 30 0 39 18 38 52 -2 14
-18 30 -30 34 -25 4 4 -3 18 -16 32 -18 20 -21 28 -12 37 13 13 16 54 4 62 -4
2 -24 7 -45 11 l-37 7 0 -76z m65 24 c0 -18 -6 -26 -22 -28 -20 -3 -23 1 -23
28 0 27 3 31 23 28 16 -2 22 -10 22 -28z"/>
        <path d="M3557 2193 c-4 -3 -7 -37 -7 -75 l0 -68 51 0 c31 0 48 4 44 10 -3 6
-22 10 -41 10 -30 0 -34 3 -34 25 0 22 4 25 35 25 19 0 35 5 35 10 0 6 -16 10
-35 10 -28 0 -35 4 -35 20 0 17 7 20 41 20 24 0 38 4 34 10 -7 11 -78 14 -88
3z"/>
        <path d="M3686 2184 c-30 -30 -14 -58 41 -73 15 -4 29 -15 31 -23 4 -22 -29
-31 -63 -18 -20 8 -26 7 -23 -2 6 -17 76 -22 94 -7 18 15 15 49 -6 60 -8 4
-28 10 -43 14 -44 9 -32 40 16 40 39 0 48 9 21 19 -27 10 -52 7 -68 -10z"/>
        <path d="M3833 2185 c-27 -19 -38 -67 -22 -97 16 -31 28 -38 66 -38 61 0 85
79 38 125 -28 29 -51 31 -82 10z m77 -24 c16 -31 12 -66 -10 -86 -44 -40 -99
29 -65 81 19 29 60 32 75 5z"/>
        <path d="M3970 2138 c0 -37 5 -69 12 -76 20 -20 76 -15 88 7 13 25 13 118 0
126 -6 4 -10 -16 -10 -53 0 -65 -15 -88 -50 -77 -17 5 -20 15 -20 65 0 32 -4
62 -10 65 -6 4 -10 -18 -10 -57z"/>
        <path d="M4120 2125 c0 -43 4 -75 10 -75 6 0 10 14 10 30 0 17 4 30 8 30 5 0
21 -13 37 -30 37 -39 52 -39 24 1 -16 23 -19 33 -10 42 21 21 13 57 -15 67
-58 23 -64 17 -64 -65z m68 31 c2 -10 -2 -22 -10 -27 -25 -17 -38 -9 -38 22 0
26 3 30 22 27 13 -2 24 -11 26 -22z"/>
        <path d="M4270 2180 c-26 -26 -27 -90 -2 -113 26 -24 102 -21 102 4 0 5 -12 4
-26 -1 -34 -13 -40 -13 -58 6 -19 18 -21 75 -4 92 7 7 24 12 38 12 14 0 31 -5
38 -12 9 -9 12 -8 12 4 0 31 -71 37 -100 8z"/>
        <path d="M4400 2123 l0 -73 45 0 c25 0 45 5 45 10 0 6 -18 10 -40 10 -36 0
-40 3 -40 25 0 23 4 25 40 25 22 0 40 5 40 10 0 6 -18 10 -41 10 -33 0 -40 3
-35 16 3 9 6 18 6 20 0 2 16 4 35 4 19 0 35 5 35 10 0 7 -19 10 -45 9 l-45 -3
0 -73z"/>
        <path d="M4597 2194 c-11 -11 -9 -144 3 -144 6 0 10 11 10 24 0 18 7 25 30 30
38 7 61 49 39 71 -17 17 -71 30 -82 19z m63 -29 c16 -19 -3 -45 -31 -45 -14 0
-19 7 -19 30 0 23 5 30 19 30 10 0 24 -7 31 -15z"/>
        <path d="M4718 2194 c-5 -4 -8 -38 -8 -76 l0 -68 59 0 c51 0 61 3 66 20 10 30
70 28 80 -2 5 -16 8 -19 11 -8 6 19 -38 132 -53 137 -6 2 -22 -27 -36 -64 -13
-37 -27 -67 -31 -65 -3 1 -22 2 -41 2 l-34 0 -3 66 c-2 36 -6 62 -10 58z m160
-82 c-27 -5 -30 1 -17 34 l11 29 13 -30 c12 -27 12 -30 -7 -33z"/>
        <path d="M4967 2193 c-11 -10 -8 -143 3 -143 6 0 10 28 11 63 l0 62 32 -62
c43 -86 57 -83 57 13 0 47 -4 73 -10 69 -5 -3 -10 -30 -10 -58 l-1 -52 -30 58
c-28 55 -38 65 -52 50z"/>
        <path d="M5116 2193 c-10 -11 -7 -143 4 -143 6 0 10 28 11 63 l0 62 32 -62
c43 -86 57 -83 57 13 0 47 -4 73 -10 69 -5 -3 -10 -30 -11 -58 l0 -52 -27 52
c-25 50 -43 68 -56 56z"/>
        <path d="M5254 2188 c-3 -5 0 -8 5 -8 16 0 14 -117 -1 -123 -7 -3 3 -6 22 -6
26 -1 31 2 22 11 -14 14 -16 118 -2 118 6 0 10 4 10 10 0 11 -49 9 -56 -2z"/>
        <path d="M5347 2193 c-8 -14 -8 -124 0 -136 5 -7 10 17 13 53 l5 65 33 -62
c47 -92 60 -86 52 24 l-4 68 -6 -60 -5 -60 -30 54 c-29 53 -48 71 -58 54z"/>
        <path d="M5530 2193 c-26 -9 -40 -35 -40 -73 0 -46 25 -70 71 -70 41 0 59 15
59 47 0 19 -5 23 -30 23 -16 0 -30 -4 -30 -10 0 -5 7 -7 15 -4 20 8 32 -25 14
-37 -17 -11 -61 -2 -71 14 -13 21 -9 74 7 87 10 8 29 10 58 6 29 -5 39 -4 32
3 -13 13 -65 22 -85 14z"/>
    </g>
</svg>
